<?xml version="1.0" standalone="no"?>
<!DOCTYPE svg PUBLIC "-//W3C//DTD SVG 20010904//EN"
 "http://www.w3.org/TR/2001/REC-SVG-20010904/DTD/svg10.dtd">
<svg version="1.0" xmlns="http://www.w3.org/2000/svg"
 width="2342.000000pt" height="2342.000000pt" viewBox="0 0 2342.000000 2342.000000"
 preserveAspectRatio="xMidYMid meet">
<metadata>
Created by potrace 1.14, written by Peter Selinger 2001-2017
</metadata>
<g transform="translate(0.000000,2342.000000) scale(0.100000,-0.100000)"
fill="#000000" stroke="none">
<path d="M16153 15008 c-6 -7 -29 -58 -51 -113 -23 -55 -41 -95 -42 -88 0 21
-49 66 -65 59 -18 -7 -22 -16 -75 -185 -29 -91 -45 -129 -51 -120 -15 23 -35
-13 -69 -125 -44 -141 -50 -156 -69 -157 -9 0 -27 -2 -41 -5 -88 -14 -148 -25
-170 -29 -14 -3 -38 -7 -55 -9 -16 -2 -46 -7 -65 -11 -19 -3 -46 -8 -60 -10
-28 -5 -225 -40 -280 -50 -19 -4 -44 -8 -55 -10 -74 -11 -104 -19 -140 -35
-55 -25 -184 -62 -300 -86 -11 -2 -31 -6 -45 -9 -14 -3 -104 -19 -200 -35 -96
-17 -240 -42 -320 -57 -80 -14 -154 -27 -165 -28 -18 -3 -167 -30 -220 -41
-11 -2 -33 -7 -50 -9 -16 -3 -86 -17 -155 -31 -69 -14 -138 -28 -155 -31 -16
-2 -57 -11 -90 -20 -33 -8 -67 -16 -75 -18 -94 -18 -143 -45 -133 -71 6 -17
46 -17 94 0 19 7 41 10 48 8 8 -3 -38 -18 -100 -34 -136 -35 -249 -81 -269
-107 -7 -11 -43 -30 -80 -42 -86 -28 -108 -44 -93 -67 6 -9 16 -16 22 -15 24
6 8 -6 -41 -32 -47 -25 -51 -25 -34 -6 11 12 17 23 15 26 -4 4 -122 -68 -277
-167 -31 -21 -88 -56 -127 -80 -56 -34 -166 -118 -195 -148 -3 -3 -46 -40 -96
-82 -51 -43 -116 -105 -145 -139 -30 -34 -58 -67 -64 -73 -16 -17 -67 -78
-102 -122 -18 -21 -49 -59 -69 -84 -99 -121 -284 -400 -284 -428 0 -9 6 -12
16 -8 19 7 22 15 -43 -110 -66 -128 -105 -226 -137 -345 -34 -126 -39 -167
-40 -284 -1 -98 4 -148 29 -280 9 -50 73 -189 115 -250 75 -108 186 -184 309
-210 174 -36 360 24 631 203 63 42 120 81 127 86 6 6 29 25 49 41 107 85 327
298 382 369 25 32 58 71 73 87 16 16 48 55 71 87 24 31 73 92 110 136 75 87
81 122 9 54 -25 -24 -68 -61 -94 -82 l-48 -38 49 64 c27 34 76 91 110 126 54
55 76 92 56 92 -3 0 -51 -39 -107 -87 -56 -49 -112 -97 -126 -108 -13 -11 -45
-40 -71 -65 -123 -119 -225 -210 -234 -210 -6 0 19 30 56 68 97 99 128 134
144 165 23 42 5 33 -72 -41 -335 -317 -403 -378 -524 -472 -47 -37 -47 -37
-136 -87 -106 -61 -224 -97 -326 -102 -50 -2 -66 2 -125 35 -108 59 -178 120
-211 183 -17 33 -27 101 -14 101 18 0 22 29 8 67 -12 34 -10 49 16 153 16 63
31 122 33 130 4 19 66 179 91 235 10 22 18 42 19 45 3 12 53 123 96 210 122
250 328 531 500 685 95 85 172 149 249 206 112 85 340 230 421 268 133 61 334
139 342 131 9 -8 109 15 137 31 25 14 -9 11 -65 -6 -37 -11 -45 -11 -34 -1 27
25 175 74 329 110 85 20 224 54 308 75 101 26 152 35 152 27 0 -12 -83 -255
-100 -291 -5 -11 -31 -81 -58 -155 -73 -198 -209 -539 -297 -745 -42 -99 -77
-192 -76 -207 1 -14 -22 -91 -50 -170 -27 -79 -52 -147 -53 -153 -2 -5 -6 -17
-9 -25 -3 -8 -13 -35 -21 -60 -8 -25 -38 -110 -66 -190 -28 -80 -78 -221 -112
-315 -73 -207 -79 -226 -73 -235 3 -4 -2 -24 -10 -44 -22 -52 -20 -75 6 -69
26 7 45 36 86 136 19 45 31 66 27 47 -4 -19 -8 -62 -9 -95 -2 -33 -12 -85 -23
-115 -12 -30 -39 -104 -62 -165 -23 -60 -46 -121 -50 -135 -5 -14 -25 -68 -45
-120 -20 -52 -38 -102 -40 -112 -3 -15 28 -53 44 -53 12 0 3 -50 -22 -127 -27
-82 -23 -98 13 -48 12 17 29 30 38 30 12 0 30 34 65 124 26 68 48 134 49 147
1 22 13 55 54 144 19 41 84 224 160 450 36 105 68 197 71 205 3 8 7 20 9 25 7
26 170 461 239 640 43 110 97 250 120 311 24 62 50 127 58 145 9 19 42 102 75
184 61 152 183 445 207 500 85 190 225 543 241 608 3 15 14 32 23 37 16 8 198
57 251 67 14 2 45 9 70 14 50 12 44 11 155 34 117 24 113 24 200 41 123 24
123 24 194 40 110 26 328 71 383 78 21 3 57 10 80 15 24 5 62 12 85 16 l41 6
-15 -48 c-8 -26 -25 -84 -39 -127 -22 -72 -32 -89 -56 -98 -4 -2 -43 -106 -86
-233 -91 -264 -139 -398 -247 -685 -42 -113 -106 -293 -142 -400 -36 -107 -69
-199 -72 -205 -4 -5 -16 -32 -26 -60 -10 -27 -24 -59 -32 -71 -7 -11 -10 -24
-6 -27 3 -4 -1 -15 -10 -24 -8 -10 -15 -20 -15 -23 2 -14 -15 -50 -23 -50 -6
0 -7 -4 -4 -10 3 -5 2 -10 -4 -10 -6 0 -8 -6 -5 -14 3 -7 -2 -21 -11 -30 -9
-8 -18 -24 -20 -35 -5 -29 -24 -61 -36 -61 -6 0 -7 -5 -4 -10 4 -6 -1 -23 -11
-38 -10 -15 -37 -61 -59 -102 -23 -41 -52 -93 -65 -115 -12 -22 -38 -69 -58
-105 -94 -175 -230 -331 -369 -423 -90 -60 -126 -73 -149 -55 -95 75 -171 227
-166 333 0 17 2 109 3 204 3 184 14 250 75 458 14 48 27 95 29 103 3 17 42
131 79 235 14 39 26 79 26 91 0 11 5 25 11 31 10 10 31 63 80 208 11 33 36 96
54 140 42 101 70 177 70 190 1 6 7 20 13 33 7 12 10 27 7 32 -3 6 -2 10 4 10
5 0 15 17 21 38 7 20 24 60 40 87 15 28 30 63 34 79 4 16 25 67 48 115 54 115
88 191 88 196 0 3 -7 5 -16 5 -12 0 -14 3 -6 13 6 7 7 18 3 25 -10 16 -24 0
-41 -43 -8 -21 -13 -26 -19 -16 -7 11 -10 11 -15 0 -3 -8 -4 -2 -1 14 5 27 -1
33 -21 19 -11 -6 -104 -195 -134 -269 -7 -18 -16 -33 -21 -33 -5 0 3 26 17 58
14 31 28 63 31 70 3 6 -2 12 -11 12 -10 0 -13 6 -10 15 12 30 -6 14 -40 -37
-19 -29 -49 -82 -66 -118 -18 -36 -48 -90 -66 -121 -19 -31 -34 -64 -34 -73 0
-9 -3 -16 -7 -16 -9 0 -17 -15 -95 -190 -150 -335 -314 -798 -301 -848 4 -16
2 -23 -5 -18 -10 6 -15 -9 -27 -77 -3 -15 -14 -64 -25 -110 -11 -45 -20 -91
-20 -102 -1 -35 -8 -108 -14 -150 -20 -141 -26 -454 -12 -555 27 -191 108
-318 236 -371 35 -14 193 -19 235 -8 115 32 249 123 396 269 147 147 273 307
369 470 36 60 155 296 190 375 12 28 32 73 45 100 26 56 121 286 123 298 1 4
8 20 15 35 8 15 24 56 37 92 12 36 40 111 62 167 21 55 41 110 43 122 2 11 24
69 48 128 25 59 66 173 92 253 26 80 59 179 75 220 15 41 38 107 50 145 13 39
28 81 33 95 6 14 11 27 11 30 1 3 14 37 28 75 35 91 161 445 182 512 10 28 24
57 32 63 7 7 14 10 14 7 0 -3 17 -1 38 4 20 5 55 11 77 14 22 3 65 10 95 15
30 5 69 12 85 14 17 3 71 12 120 20 50 9 113 18 140 21 28 3 57 8 65 10 8 2
31 7 50 10 19 3 49 8 65 11 17 3 60 7 96 8 88 5 341 64 336 79 -2 7 -25 12
-55 11 -94 -2 -54 12 96 34 219 33 232 35 376 67 25 6 29 11 21 25 -4 7 -18
10 -31 7 -13 -2 -24 0 -24 4 0 5 -15 13 -32 18 -18 5 -26 10 -18 11 8 1 24 3
35 5 11 2 47 7 80 10 33 3 71 8 85 10 14 3 54 7 90 11 36 3 66 9 68 13 1 4 17
5 35 3 44 -5 111 19 115 40 3 16 -5 17 -80 13 -46 -3 -99 -7 -118 -10 -19 -2
-60 -7 -90 -10 -59 -6 -120 -14 -160 -20 -53 -8 -107 -15 -170 -20 -147 -13
-220 -29 -220 -48 0 -7 -6 -6 -15 4 -14 14 -25 14 -113 -2 -53 -9 -115 -19
-137 -22 -22 -4 -51 -9 -65 -12 -13 -2 -42 -7 -65 -10 -22 -4 -57 -11 -77 -16
-21 -5 -59 -11 -85 -13 -27 -2 -61 -7 -77 -11 -17 -5 -27 -4 -23 1 8 14 -17
43 -36 40 -9 -1 -26 -12 -37 -24 -25 -26 -32 -28 -23 -6 5 15 -2 16 -63 11
-38 -4 -78 -8 -89 -11 -11 -2 -42 -7 -69 -10 -27 -4 -53 -9 -57 -12 -4 -2 -32
-6 -61 -8 -54 -4 -54 -4 -54 24 0 16 3 27 7 25 4 -3 9 2 13 10 3 8 1 17 -5 20
-5 4 0 14 12 24 14 11 23 31 24 54 1 20 8 44 15 52 10 12 10 15 -1 15 -11 0
-11 2 -1 9 7 4 12 12 11 17 -1 5 1 16 4 24 23 52 89 250 92 275 3 17 7 49 11
71 7 48 -6 84 -23 62z m-1910 -1105 c-7 -2 -19 -2 -25 0 -7 3 -2 5 12 5 14 0
19 -2 13 -5z m-233 -53 c-14 -4 -34 -8 -45 -9 -16 -1 -17 1 -5 9 8 5 29 9 45
9 29 -1 29 -1 5 -9z m91 -276 c-32 -87 -50 -127 -51 -110 0 17 72 207 77 202
3 -3 -9 -44 -26 -92z m-1364 -160 c-3 -3 -12 -4 -19 -1 -8 3 -5 6 6 6 11 1 17
-2 13 -5z m223 -29 c-19 -7 -42 -13 -50 -13 -8 0 1 6 20 13 19 7 42 13 50 13
8 0 -1 -6 -20 -13z m-1057 -620 c-3 -9 -8 -14 -10 -11 -3 3 -2 9 2 15 9 16 15
13 8 -4z m-299 -387 c-4 -7 -15 -24 -25 -38 -74 -111 -133 -217 -213 -388 -46
-98 -61 -113 -39 -40 47 160 144 334 251 451 27 29 38 35 26 15z m-494 -708
c0 -5 -4 -10 -10 -10 -5 0 -10 5 -10 10 0 6 5 10 10 10 6 0 10 -4 10 -10z
m1991 -241 c-5 -13 -10 -19 -10 -12 -1 15 10 45 15 40 3 -2 0 -15 -5 -28z
m-43 -123 c-1 -14 -5 -23 -9 -20 -7 4 0 44 7 44 2 0 3 -11 2 -24z m-33 -91
c-8 -22 -14 -32 -15 -23 0 17 21 70 26 65 2 -1 -3 -21 -11 -42z m1685 -29 c0
-2 -8 -10 -17 -17 -16 -13 -17 -12 -4 4 13 16 21 21 21 13z m-3636 -262 c3 -8
2 -12 -4 -9 -6 3 -10 10 -10 16 0 14 7 11 14 -7z m355 -50 c14 -12 -19 -1 -35
12 -18 14 -18 14 6 3 14 -6 27 -13 29 -15z m-270 -72 c-2 -5 -17 9 -33 32
l-28 41 32 -31 c18 -18 31 -36 29 -42z m751 -37 c-85 -44 -102 -45 -25 -1 33
19 67 35 75 35 8 0 -14 -15 -50 -34z m1946 -52 c21 -27 28 -39 15 -28 -24 21
-66 75 -58 75 3 0 22 -21 43 -47z m-2041 7 c-3 -5 -12 -10 -18 -10 -7 0 -6 4
3 10 19 12 23 12 15 0z m-378 -41 c10 0 13 -3 6 -6 -15 -6 -120 24 -128 36 -3
5 19 1 50 -10 30 -10 62 -19 72 -20z m2691 -10 c-24 -14 -118 -24 -118 -13 0
5 15 9 33 8 17 0 41 3 52 7 11 4 27 8 35 8 12 0 11 -2 -2 -10z"/>
<path d="M13447 14924 c-1 -2 -34 -5 -72 -8 -39 -4 -83 -8 -100 -11 -16 -2
-52 -7 -80 -11 -112 -13 -229 -32 -249 -40 -9 -3 -16 -1 -16 5 0 6 -11 11 -25
11 -16 0 -25 -6 -25 -15 0 -8 -4 -15 -10 -15 -5 0 -10 4 -10 10 0 9 -91 6
-130 -5 -8 -2 -40 -7 -70 -10 -30 -3 -62 -8 -70 -10 -8 -2 -35 -7 -60 -10 -25
-3 -52 -8 -60 -10 -8 -2 -33 -7 -55 -10 -23 -3 -52 -7 -65 -10 -14 -3 -38 -7
-55 -10 -92 -15 -108 -19 -162 -38 -22 -9 -58 -18 -78 -21 -21 -4 -40 -8 -44
-10 -3 -2 -28 -7 -54 -10 -26 -4 -71 -11 -100 -17 -29 -6 -61 -12 -72 -14 -11
-2 -38 -6 -60 -10 -22 -3 -47 -8 -55 -10 -8 -2 -31 -7 -50 -10 -57 -9 -90 -16
-183 -37 -68 -15 -87 -23 -83 -34 3 -9 -2 -17 -12 -20 -9 -3 -50 -21 -89 -40
-74 -35 -98 -62 -45 -50 15 4 47 9 72 12 35 3 40 2 23 -5 -44 -20 -26 -33 35
-26 46 6 281 59 354 81 15 4 11 -13 -21 -103 -32 -90 -143 -370 -183 -463 -6
-14 -10 -29 -9 -34 1 -5 -5 -27 -14 -50 -10 -23 -19 -48 -20 -56 -2 -8 -22
-67 -45 -130 -74 -208 -86 -246 -92 -289 -2 -20 5 -19 27 6 13 15 25 23 25 17
0 -6 -22 -72 -50 -145 -44 -118 -48 -135 -34 -146 13 -10 13 -15 0 -46 -17
-41 -11 -53 14 -29 18 17 65 132 54 132 -4 0 -2 6 3 13 12 15 40 88 93 242 40
115 172 468 190 510 5 11 23 56 41 100 30 78 44 110 73 178 36 81 95 227 113
277 20 58 36 69 118 83 17 3 84 17 150 32 124 27 404 82 465 91 19 3 76 12
125 20 50 8 101 17 115 19 14 2 41 7 60 10 19 3 66 10 105 15 38 5 88 15 110
21 34 10 37 13 20 20 -19 7 -18 8 4 8 49 2 201 34 201 43 0 5 -3 7 -7 5 -5 -3
-17 -1 -28 3 -20 7 -13 9 130 26 56 7 76 14 70 24 -5 7 -42 10 -48 4z m-2082
-454 c-27 -12 -43 -12 -25 0 8 5 22 9 30 9 10 0 8 -3 -5 -9z"/>
<path d="M12678 14640 c-7 -16 -18 -30 -24 -30 -6 0 -17 -11 -24 -25 -7 -13
-18 -23 -23 -22 -6 1 -62 -99 -124 -222 -62 -123 -115 -226 -118 -229 -2 -3
-37 -11 -77 -18 -114 -21 -128 -24 -206 -40 -40 -9 -75 -14 -78 -11 -5 5 41
104 98 208 34 63 50 109 37 109 -21 0 -60 -34 -76 -67 -16 -35 -35 -29 -26 8
3 10 1 19 -5 19 -5 0 -45 -72 -88 -160 -75 -151 -81 -161 -114 -170 -36 -10
-100 -61 -100 -79 0 -6 -7 -11 -15 -11 -8 0 -15 -9 -15 -19 0 -11 -5 -21 -12
-23 -6 -2 -8 -9 -5 -15 5 -8 22 -8 62 2 55 12 55 12 49 -9 -4 -11 -7 -30 -6
-40 0 -11 -17 -62 -40 -115 -37 -89 -66 -162 -72 -186 -2 -5 -6 -19 -10 -30
-16 -42 -16 -47 -2 -42 9 4 17 -3 21 -16 5 -18 12 -11 40 48 18 39 34 64 34
58 2 -27 17 -11 29 30 7 23 41 110 74 194 68 169 64 166 213 197 6 2 28 8 50
14 22 7 74 20 116 31 l76 18 -64 -144 c-34 -79 -63 -148 -63 -153 0 -6 7 -10
15 -10 18 0 19 5 -5 -59 -12 -29 -19 -56 -16 -59 10 -9 62 52 76 88 29 78 144
336 154 346 20 21 119 42 194 42 39 0 72 -3 72 -8 0 -4 -16 -42 -35 -85 -19
-42 -33 -81 -30 -85 12 -19 -8 -60 -31 -66 -21 -6 -24 -10 -18 -39 5 -29 3
-33 -20 -39 -30 -7 -34 -26 -8 -33 14 -3 18 -13 16 -44 -2 -47 18 -53 36 -10
6 16 20 37 29 45 15 14 140 45 238 59 39 6 96 25 131 43 15 8 34 14 43 14 9 0
22 7 29 15 10 12 9 15 -6 15 -18 1 -18 1 -1 11 9 5 17 17 17 25 0 16 -45 14
-117 -6 -18 -4 -35 -5 -38 0 -3 5 -20 4 -38 0 -17 -5 -52 -12 -77 -15 -25 -3
-57 -8 -72 -11 -30 -6 -33 -3 -19 24 5 9 27 61 48 114 33 84 42 99 68 109 17
6 44 17 60 25 17 7 65 20 107 29 42 9 82 23 88 31 10 11 9 14 -6 14 -17 0 -17
1 2 15 18 14 18 14 -9 15 -16 0 -26 4 -22 10 7 11 -156 6 -174 -5 -8 -4 -8 1
-2 17 10 25 99 209 104 214 6 7 194 45 265 55 43 5 91 14 107 19 17 5 53 12
80 14 28 3 61 8 75 11 14 3 49 7 78 10 29 2 58 7 63 11 6 3 27 6 46 6 20 0 46
4 57 8 20 8 20 9 -4 11 -14 1 -28 1 -32 0 -5 0 -8 3 -8 8 0 5 -17 7 -39 4 -23
-3 -41 -1 -45 6 -7 11 17 16 57 12 10 -2 17 5 17 14 0 15 -8 16 -57 12 -49 -5
-206 -28 -293 -43 -14 -2 -92 -15 -175 -29 -245 -42 -470 -86 -486 -96 -12 -8
-12 -10 0 -18 8 -5 21 -7 30 -4 11 4 13 3 6 -5 -5 -6 -23 -13 -39 -16 -34 -6
-51 -20 -42 -35 8 -12 85 -6 169 13 32 7 56 11 55 7 -2 -3 -28 -57 -58 -119
-61 -127 -52 -121 -207 -147 -28 -4 -43 -12 -43 -21 0 -13 -28 -14 -79 -5 -2
1 1 7 7 14 5 6 60 109 120 228 76 148 107 220 100 227 -7 7 -6 16 1 30 13 25
14 42 2 42 -5 0 -15 -13 -23 -30z m-144 -549 c3 -5 -3 -11 -14 -14 -22 -6 -37
8 -18 16 20 8 26 8 32 -2z"/>
<path d="M10115 14500 c-22 -4 -62 -10 -90 -14 -27 -3 -61 -8 -75 -11 -23 -4
-62 -10 -140 -21 -19 -3 -57 -8 -85 -13 -27 -4 -124 -6 -215 -5 -112 2 -191
-2 -245 -12 -44 -8 -120 -16 -170 -19 -97 -4 -131 -9 -149 -23 -6 -5 -22 -6
-36 -2 -14 4 -36 3 -50 -2 -14 -5 -63 -11 -110 -14 -47 -2 -128 -13 -180 -25
-52 -11 -126 -22 -165 -24 -102 -5 -177 -15 -200 -29 -11 -6 -38 -12 -60 -12
-22 -1 -69 -10 -105 -21 -41 -12 -76 -17 -92 -12 -15 4 -29 5 -31 2 -3 -2 -49
-11 -103 -18 -55 -8 -110 -17 -124 -20 -14 -3 -49 -8 -79 -11 -30 -3 -57 -7
-60 -9 -3 -2 -31 -6 -61 -10 -30 -4 -57 -8 -60 -10 -3 -2 -30 -6 -60 -10 -30
-3 -62 -8 -70 -10 -8 -3 -33 -7 -55 -10 -39 -4 -101 -14 -140 -21 -20 -4 -73
-12 -122 -19 -47 -6 -105 -15 -168 -26 -33 -6 -76 -13 -95 -15 -19 -2 -46 -6
-60 -9 -14 -3 -43 -7 -65 -10 -22 -3 -51 -8 -65 -10 -14 -3 -43 -8 -65 -11
-22 -3 -47 -8 -55 -9 -20 -4 -102 -13 -175 -20 -33 -3 -74 -8 -91 -11 -35 -6
-79 -43 -89 -74 -3 -11 -13 -20 -22 -20 -26 0 -83 -41 -83 -59 0 -15 9 -18 61
-16 59 2 61 1 71 -26 9 -25 16 -31 38 -31 37 0 184 15 214 22 21 4 48 5 60 0
20 -8 20 -8 -7 -19 -69 -27 -302 -43 -410 -28 -48 7 -55 -8 -27 -58 36 -64 44
-69 113 -61 77 7 112 13 206 31 40 8 77 15 81 15 18 0 -24 -128 -186 -555 -12
-33 -55 -151 -96 -261 l-73 -202 -75 -13 c-41 -7 -79 -14 -85 -15 -5 -1 -28
-5 -50 -9 -22 -3 -58 -11 -80 -17 -22 -5 -49 -12 -60 -14 -11 -2 -31 -6 -45
-9 -14 -3 -35 -7 -48 -10 -13 -2 -32 -7 -42 -10 -10 -3 -27 -8 -38 -10 -10 -2
-73 -18 -140 -35 -112 -30 -120 -34 -117 -55 2 -19 -4 -24 -28 -29 -17 -4 -48
-11 -68 -16 l-38 -10 13 -38 13 -37 64 3 c35 2 90 9 122 16 48 11 57 11 58 0
1 -8 2 -20 3 -26 4 -24 -15 -36 -79 -48 -60 -11 -63 -13 -53 -34 5 -11 23 -32
40 -45 34 -27 100 -33 218 -19 36 4 88 10 115 13 28 3 61 8 75 10 14 3 40 7
58 10 17 3 46 7 62 10 35 6 36 1 14 -51 -9 -21 -17 -45 -19 -53 -2 -9 -45
-135 -95 -281 -51 -146 -105 -303 -121 -350 -16 -47 -29 -90 -29 -96 0 -7 14
-17 31 -23 33 -11 33 -18 4 -86 -12 -26 -27 -74 -90 -275 -21 -70 -75 -287
-75 -305 0 -13 4 -14 20 -5 11 6 20 17 20 25 0 8 4 15 10 15 5 0 8 -6 5 -12
-2 -7 -6 -30 -8 -50 -4 -28 -1 -38 9 -38 16 0 34 31 34 59 0 13 5 19 14 15 8
-3 16 4 19 17 4 13 9 20 13 17 7 -8 -41 -153 -92 -275 -49 -120 -44 -158 16
-116 45 31 70 73 112 193 17 47 38 108 48 135 78 219 192 523 228 606 10 24
31 85 47 134 16 50 53 151 83 225 51 127 90 236 97 270 2 8 11 35 20 60 9 25
18 52 20 60 2 8 24 68 50 133 54 135 55 136 187 166 100 23 119 26 338 56 63
8 126 17 140 19 14 3 61 10 105 17 44 6 89 13 100 15 32 5 188 34 215 40 14 3
36 7 50 10 50 10 172 45 207 59 30 13 33 17 23 30 -10 12 -9 15 6 16 43 2 83
12 149 38 52 21 71 34 73 49 2 12 12 22 25 24 16 2 22 10 22 28 0 14 -4 24
-10 24 -5 -1 -44 -5 -85 -8 -72 -6 -133 -13 -192 -20 -16 -2 -28 0 -28 4 0 3
51 16 114 29 149 28 216 49 216 65 0 10 -24 13 -112 10 -143 -4 -348 -13 -413
-19 -27 -2 -84 -7 -125 -10 -73 -5 -144 -11 -225 -20 -22 -3 -67 -7 -100 -10
-33 -3 -73 -7 -90 -10 -16 -2 -52 -7 -80 -10 -27 -3 -63 -8 -80 -10 -16 -2
-55 -7 -85 -10 -30 -3 -72 -8 -92 -11 -36 -5 -37 -4 -28 23 23 76 118 335 331
898 24 65 32 78 51 81 7 1 31 5 53 8 22 3 51 8 65 11 14 2 43 7 65 10 22 3 83
12 135 21 52 8 106 17 120 19 14 2 68 11 120 19 52 8 113 18 135 20 22 3 51 8
65 10 14 3 43 7 65 11 22 3 67 10 100 15 33 5 78 11 100 15 22 3 51 7 65 10
14 2 48 6 75 10 80 10 109 14 131 19 12 2 45 7 75 11 30 3 65 8 79 10 14 2 45
7 70 10 25 4 56 8 70 10 14 3 45 7 70 10 25 3 55 7 67 9 12 3 46 7 75 10 29 4
62 8 73 10 11 2 63 9 115 16 52 7 103 14 114 16 10 2 44 6 75 9 31 4 63 8 71
10 20 6 97 13 205 20 50 4 106 8 125 10 19 2 71 6 115 9 44 4 91 8 105 10 14
3 50 7 80 11 186 20 252 37 248 63 -3 14 9 18 67 23 123 11 246 24 268 28 16
3 6 21 -13 21 -23 0 -28 19 -5 21 54 4 60 2 57 -14 -4 -22 24 -22 32 0 6 14 8
14 21 -3 14 -18 14 -18 15 4 0 12 6 22 15 22 9 0 12 -6 9 -15 -5 -11 1 -15 20
-15 16 0 26 6 26 15 0 8 8 15 18 15 10 0 22 3 26 7 11 12 46 13 46 2 0 -6 -10
-9 -22 -7 -15 2 -24 -3 -26 -14 -2 -11 2 -15 15 -13 10 2 42 4 72 4 42 1 52 4
48 15 -7 18 13 25 65 24 38 0 127 36 163 67 19 16 18 16 -20 11 -22 -3 -51 -8
-65 -11 -84 -17 -139 -25 -160 -23 -24 1 -141 -10 -178 -17 -9 -1 -46 -6 -82
-9 -36 -4 -77 -9 -92 -12 -31 -6 -37 6 -13 26 9 8 28 10 49 6 20 -4 37 -2 41
4 3 5 19 10 36 10 17 0 29 5 29 13 0 10 -33 12 -160 9 -105 -3 -160 -1 -160 6
0 6 19 13 43 17 53 8 108 26 127 41 22 17 80 16 80 -2 0 -18 24 -18 39 0 6 7
36 16 67 19 52 5 84 19 84 38 0 4 -10 6 -22 4 -13 -2 -52 -6 -88 -9 -95 -9
-153 -17 -161 -22 -4 -2 -14 -1 -23 2 -11 4 -13 11 -7 22 4 10 6 23 4 30 -5
13 -18 14 -78 2z m-3622 -727 c-7 -2 -19 -2 -25 0 -7 3 -2 5 12 5 14 0 19 -2
13 -5z m-52 -154 c-5 -13 -10 -19 -10 -12 -1 15 10 45 15 40 3 -2 0 -15 -5
-28z m-40 -96 c-12 -20 -14 -14 -5 12 4 9 9 14 11 11 3 -2 0 -13 -6 -23z m-18
-53 c-3 -12 -8 -19 -11 -16 -5 6 5 36 12 36 2 0 2 -9 -1 -20z m1107 -760 c0
-5 -12 -10 -27 -9 -25 0 -26 1 -8 9 27 12 35 12 35 0z"/>
<path d="M16568 14398 c-24 -6 -35 -14 -32 -23 5 -11 12 -11 42 -1 20 7 45 12
55 10 9 -1 17 4 17 12 0 16 -27 17 -82 2z"/>
<path d="M10968 14142 c-8 -12 -26 -24 -41 -27 -19 -5 -51 -40 -111 -119 -46
-61 -99 -127 -118 -146 -20 -19 -61 -71 -94 -115 -32 -44 -62 -84 -66 -90
-144 -185 -644 -912 -763 -1110 -40 -66 -144 -225 -149 -225 -2 0 -240 -50
-261 -55 -11 -3 -94 -21 -185 -40 -287 -63 -394 -87 -445 -101 -27 -7 -61 -15
-75 -18 -14 -2 -63 -13 -110 -24 -80 -20 -157 -36 -226 -48 -16 -3 -44 -9 -63
-14 -47 -13 -52 -4 -9 14 19 8 40 22 48 30 7 9 16 16 21 16 10 0 34 15 159 96
41 27 84 54 95 60 36 19 286 200 338 244 164 137 368 343 450 453 71 94 139
221 162 302 27 92 24 214 -8 297 -36 93 -49 110 -140 183 -81 65 -166 112
-215 120 -15 2 -45 9 -67 14 -75 20 -150 26 -330 26 -194 -1 -265 -10 -415
-56 -52 -16 -120 -35 -151 -44 -66 -18 -146 -67 -183 -112 -30 -36 -48 -100
-25 -91 157 64 222 88 262 93 50 8 56 2 32 -33 -21 -29 -4 -62 33 -63 66 -3
94 2 153 30 129 60 226 85 334 84 84 -1 96 -4 162 -45 104 -66 171 -128 198
-185 54 -112 -30 -331 -214 -561 -53 -68 -97 -109 -178 -168 -59 -44 -146
-107 -193 -141 -47 -35 -96 -71 -109 -80 -25 -19 -35 -26 -238 -168 -130 -92
-268 -184 -335 -224 -31 -18 -38 -20 -38 -7 0 8 5 18 10 21 6 4 8 10 5 15 -3
5 7 33 22 62 15 29 35 73 44 98 10 25 45 106 79 180 34 74 102 225 152 335 50
110 102 225 116 255 14 30 24 62 23 72 -1 9 5 33 14 53 20 51 19 62 -9 67 -25
5 -29 1 -78 -87 -15 -27 -28 -45 -28 -40 0 6 4 16 9 24 10 15 -6 61 -21 61 -5
0 -27 -29 -49 -64 -41 -66 -71 -81 -77 -38 -8 53 -30 20 -154 -229 -48 -98
-88 -181 -88 -183 0 -2 -26 -60 -59 -128 -32 -68 -93 -199 -136 -293 -42 -93
-86 -190 -97 -215 -12 -25 -32 -70 -45 -100 -14 -30 -31 -68 -38 -85 -47 -106
-69 -155 -120 -275 -31 -74 -67 -157 -80 -185 -14 -31 -20 -56 -15 -65 6 -10
-2 -41 -20 -83 -16 -37 -28 -69 -29 -70 0 -1 -3 -10 -7 -20 -8 -22 0 -31 45
-46 36 -12 61 -2 61 24 0 7 14 50 31 94 27 72 32 79 49 69 20 -13 19 -17 -19
-101 -10 -23 -41 -96 -69 -162 -48 -114 -99 -230 -109 -248 -3 -5 3 -8 13 -7
34 4 44 0 44 -16 0 -10 7 -14 22 -12 18 2 31 23 64 98 24 52 52 126 65 163 12
37 24 65 27 63 2 -3 -1 -20 -7 -38 -11 -33 -11 -33 7 -10 9 12 25 43 35 70 10
26 24 58 30 72 6 14 12 32 13 40 1 8 22 59 48 114 25 54 46 104 46 110 0 6 21
51 45 101 25 49 45 95 45 101 0 17 42 114 49 114 7 -1 99 -117 359 -454 107
-138 201 -260 210 -271 10 -11 84 -110 166 -220 82 -110 161 -214 175 -231 14
-17 35 -42 45 -55 11 -13 56 -67 102 -119 45 -52 140 -165 210 -250 71 -85
131 -157 134 -160 3 -3 36 -41 74 -85 38 -44 100 -115 140 -159 39 -43 73 -82
74 -87 7 -17 32 -9 48 16 9 14 19 25 23 25 3 0 35 -40 71 -90 90 -123 118
-120 50 6 -38 69 -112 175 -197 282 -53 66 -90 134 -68 126 10 -4 15 0 15 15
0 12 -7 24 -15 27 -8 4 -15 11 -15 18 0 20 -275 419 -391 566 -10 14 -56 75
-101 135 -45 61 -111 146 -148 190 -55 67 -118 145 -343 425 -132 165 -347
448 -347 458 0 11 147 77 165 74 11 -3 14 -10 10 -23 -6 -19 -3 -20 37 -14 39
6 133 27 182 42 12 3 16 1 12 -6 -4 -6 -17 -11 -29 -11 -12 0 -32 -8 -44 -18
-16 -13 -19 -22 -12 -40 12 -31 33 -37 92 -23 29 6 62 13 75 16 13 2 31 6 40
9 9 3 28 7 42 10 14 2 47 9 74 16 36 8 52 8 60 0 7 -7 7 -11 1 -10 -19 4 -55
-12 -55 -24 0 -6 7 -21 15 -33 12 -17 23 -20 63 -17 70 5 283 49 437 89 28 7
70 16 96 19 25 4 73 15 107 25 34 11 62 15 62 11 0 -5 -67 -121 -150 -258 -82
-137 -153 -257 -156 -266 -5 -12 0 -19 14 -23 l21 -5 -22 -44 c-22 -46 -19
-57 21 -69 20 -6 26 0 53 60 16 36 34 63 38 60 5 -3 12 8 16 25 4 17 15 35 26
40 25 14 24 7 -7 -40 -15 -22 -31 -37 -37 -33 -7 4 -8 0 -4 -12 5 -11 -3 -34
-21 -64 -16 -25 -42 -68 -58 -96 -16 -27 -33 -57 -39 -67 -5 -9 -25 -43 -44
-75 -19 -32 -47 -77 -63 -101 -30 -44 -30 -62 2 -62 22 0 35 -16 20 -25 -13
-8 -13 -35 0 -35 6 0 10 8 10 18 0 9 14 30 30 46 17 16 30 35 30 42 0 8 6 11
15 8 10 -4 15 0 15 11 0 9 13 33 29 53 16 20 32 48 36 62 8 25 82 138 116 175
9 11 21 32 24 48 4 15 12 30 18 34 6 3 7 1 3 -5 -4 -7 -1 -12 8 -12 12 0 16
10 16 35 0 21 5 34 12 33 13 -3 127 140 128 159 0 7 9 17 20 23 11 6 19 14 18
18 -2 4 22 41 53 82 59 79 157 238 186 301 18 37 47 53 123 65 14 3 31 7 39
10 29 10 328 67 361 68 19 1 61 10 93 20 31 9 63 16 70 13 6 -2 28 1 47 8 19
8 50 16 69 19 l33 6 -6 -68 c-12 -120 -17 -177 -21 -202 -2 -14 -7 -52 -10
-85 -4 -33 -13 -109 -21 -170 -7 -60 -16 -128 -19 -150 -2 -22 -6 -56 -9 -75
-15 -113 -18 -140 -22 -185 -2 -27 -8 -90 -14 -140 -9 -76 -14 -133 -23 -247
-1 -10 -4 -18 -7 -18 -3 0 -6 -15 -7 -32 -2 -64 -18 -241 -28 -318 -12 -88
-26 -210 -31 -275 -16 -204 -21 -283 -28 -418 -3 -60 -10 -125 -15 -145 -17
-63 -25 -189 -12 -176 7 6 14 24 17 39 3 16 9 36 14 44 10 16 9 -12 -6 -206
-4 -57 -2 -83 5 -83 6 0 11 6 11 13 4 98 18 234 26 262 2 6 5 19 6 30 3 20 16
35 31 35 13 0 7 -27 -8 -40 -12 -10 -13 -15 -4 -21 14 -8 20 -69 7 -69 -4 0
-8 -7 -8 -15 0 -8 -5 -15 -11 -15 -8 0 -8 -4 -1 -12 12 -15 8 -94 -13 -268
-14 -119 -16 -160 -7 -160 16 0 24 30 28 104 2 39 7 79 11 90 4 12 6 31 4 43
-1 12 3 32 9 43 11 20 12 20 24 4 16 -21 24 -9 22 31 -1 24 -5 30 -23 29 -13
0 -23 3 -23 8 0 8 15 12 37 9 8 -1 12 18 12 59 0 34 5 68 11 76 7 8 10 27 7
43 -4 17 -2 31 4 33 6 2 13 28 15 58 3 30 7 64 9 75 2 11 4 29 5 40 1 20 1 20
15 1 8 -11 13 -28 10 -37 -3 -10 -8 -28 -10 -41 -3 -13 -7 -34 -9 -48 -5 -25
-16 -138 -21 -218 -2 -27 1 -42 8 -39 6 2 11 10 12 18 12 80 23 176 29 249 3
30 9 84 15 120 6 36 13 94 15 130 3 36 8 85 11 110 2 25 7 67 10 94 5 53 9 61
23 52 6 -3 8 -20 6 -36 -3 -19 -1 -30 6 -30 7 0 10 13 9 33 -2 18 0 37 3 42 3
6 4 30 2 54 -2 25 1 50 7 57 14 17 18 66 6 82 -15 19 -25 14 -30 -15 l-4 -28
-1 30 c-1 29 21 82 32 78 17 -8 24 0 23 25 0 15 3 72 6 127 4 55 9 145 12 200
3 55 8 107 10 115 2 8 7 60 9 115 3 55 8 123 10 150 3 28 8 79 11 115 4 36 8
83 10 105 2 22 6 65 10 95 18 177 28 281 30 326 2 29 9 78 15 110 6 33 14 95
17 139 11 164 23 285 37 360 2 17 8 71 12 120 9 124 11 139 13 145 2 3 4 39 7
80 7 137 12 205 14 205 9 0 6 71 -3 77 -9 6 -9 8 -1 8 20 0 26 31 31 180 2 80
8 156 12 170 5 14 9 66 11 115 1 50 3 108 6 130 2 22 3 74 3 115 0 41 1 89 1
105 4 71 3 92 -3 130 -4 22 -10 60 -13 85 -6 55 -17 68 -36 42z m-1954 -368
c71 -20 99 -37 35 -22 -112 26 -143 36 -120 37 14 1 52 -6 85 -15z m-705 -17
c-2 -2 -31 -11 -64 -21 -33 -10 -77 -26 -98 -36 -20 -10 -34 -14 -31 -8 7 10
30 20 124 53 36 13 67 21 69 19 2 -2 2 -5 0 -7z m38 7 c-3 -3 -12 -4 -19 -1
-8 3 -5 6 6 6 11 1 17 -2 13 -5z m1071 -144 c122 -131 92 -365 -79 -615 -63
-94 -200 -252 -274 -317 -72 -65 -55 -40 46 67 42 44 100 105 128 135 60 64
128 191 172 321 26 77 30 104 28 177 -1 47 -7 107 -14 132 -13 50 -49 125 -65
135 -5 3 -10 11 -10 17 0 12 30 -11 68 -52z m-333 16 c110 -51 156 -116 161
-231 l4 -70 -21 61 c-26 75 -75 141 -157 211 -68 58 -64 66 13 29z m263 -41
c-3 -3 -9 2 -12 12 -6 14 -5 15 5 6 7 -7 10 -15 7 -18z m-38 -62 c-1 -10 -39
39 -40 51 0 5 9 -3 20 -17 11 -14 20 -29 20 -34z m1455 -60 c-1 -10 -8 -70
-15 -133 -6 -63 -13 -126 -15 -140 -4 -29 -12 -103 -20 -180 -6 -53 -8 -70
-19 -170 -3 -25 -8 -76 -11 -115 -4 -38 -8 -72 -10 -75 -2 -3 -5 -34 -6 -68
-2 -58 -4 -63 -28 -68 -14 -3 -32 -8 -40 -10 -7 -2 -57 -13 -110 -24 -103 -22
-130 -27 -158 -34 -78 -19 -103 -23 -106 -19 -3 2 -31 -2 -63 -10 -33 -8 -72
-18 -87 -21 l-29 -7 19 28 c11 15 23 36 26 46 4 9 40 68 80 130 41 61 96 148
122 192 26 44 70 112 97 150 95 135 158 230 173 260 9 17 35 57 60 90 24 33
65 90 90 128 26 37 48 67 50 67 2 0 2 -8 0 -17z m-1453 -48 c6 -29 -7 -34 -15
-6 -4 17 0 31 9 31 1 0 4 -11 6 -25z m-1120 -355 c-9 -21 -18 -35 -20 -30 -3
9 25 70 33 70 2 0 -4 -18 -13 -40z m2455 -656 c-3 -3 -12 -4 -19 -1 -8 3 -5 6
6 6 11 1 17 -2 13 -5z m-7 -119 c0 -8 -8 -15 -17 -16 -10 0 -27 -2 -38 -4 -11
-2 -40 -7 -65 -10 -25 -3 -63 -10 -85 -15 -22 -5 -44 -10 -50 -10 -18 0 37 33
59 36 11 1 33 7 48 13 15 6 44 10 63 9 19 -1 38 2 42 5 12 13 43 7 43 -8z
m-13 -51 c-3 -3 -12 -4 -19 -1 -8 3 -5 6 6 6 11 1 17 -2 13 -5z m-258 -8 c-5
-5 -54 -13 -119 -20 -43 -5 -43 -5 10 8 53 13 118 20 109 12z m116 -16 c3 -6
-1 -7 -9 -4 -18 7 -21 14 -7 14 6 0 13 -4 16 -10z m-348 -26 c-3 -3 -12 -4
-19 -1 -8 3 -5 6 6 6 11 1 17 -2 13 -5z m-81 -19 c-1 -8 -5 -17 -8 -21 -5 -4
-4 16 1 34 3 9 9 -1 7 -13z m189 5 c-3 -5 -13 -10 -21 -10 -8 0 -14 5 -14 10
0 6 9 10 21 10 11 0 17 -4 14 -10z m-240 -10 c-11 -5 -29 -8 -40 -8 -16 0 -15
2 5 8 34 11 60 11 35 0z m140 0 c4 -6 -6 -10 -22 -9 -25 0 -26 1 -8 9 11 5 21
9 22 9 1 1 5 -3 8 -9z m-145 -30 c0 -5 -5 -10 -11 -10 -5 0 -7 5 -4 10 3 6 8
10 11 10 2 0 4 -4 4 -10z m-40 -4 c0 -11 -19 -15 -25 -6 -3 5 1 10 9 10 9 0
16 -2 16 -4z m-1743 -78 c-3 -8 -6 -5 -6 6 -1 11 2 17 5 13 3 -3 4 -12 1 -19z
m1307 -173 c-4 -8 -10 -15 -15 -15 -4 0 -6 7 -3 15 4 8 10 15 15 15 4 0 6 -7
3 -15z m-83 -145 c-34 -56 -61 -103 -61 -105 0 -6 -63 -105 -67 -105 -5 0 24
56 54 102 12 21 23 41 22 45 -3 20 2 33 14 33 6 0 30 31 51 70 22 38 41 68 43
66 2 -2 -23 -50 -56 -106z m-17 -260 c-10 -16 -20 -28 -22 -26 -4 5 28 56 35
56 2 0 -4 -13 -13 -30z m-1133 -297 c13 -16 12 -17 -3 -4 -10 7 -18 15 -18 17
0 8 8 3 21 -13z m34 -43 c10 -11 16 -20 13 -20 -3 0 -13 9 -23 20 -10 11 -16
20 -13 20 3 0 13 -9 23 -20z m110 -132 c44 -55 85 -106 90 -112 6 -6 53 -67
105 -136 52 -69 97 -127 100 -130 3 -3 14 -18 26 -35 11 -16 38 -55 59 -85
l38 -55 -43 45 c-23 25 -79 95 -123 155 -45 61 -104 139 -132 175 -149 190
-215 280 -208 279 4 0 44 -45 88 -101z m486 -539 c58 -74 130 -165 160 -204
29 -38 58 -75 64 -81 5 -6 35 -46 65 -88 30 -43 69 -97 87 -121 31 -43 31 -44
8 -33 -14 6 -25 16 -25 22 0 6 -17 29 -38 51 -41 42 -187 235 -341 450 -52 72
-107 148 -123 170 l-30 40 34 -36 c18 -20 81 -96 139 -170z m1799 131 c0 -5
-5 -10 -11 -10 -5 0 -7 5 -4 10 3 6 8 10 11 10 2 0 4 -4 4 -10z m-3 -102 c-3
-8 -6 -5 -6 6 -1 11 2 17 5 13 3 -3 4 -12 1 -19z m-30 -203 c1 -19 -3 -38 -8
-41 -5 -3 -9 13 -9 35 0 50 16 55 17 6z m-14 -70 c-3 -9 -8 -14 -10 -11 -3 3
-2 9 2 15 9 16 15 13 8 -4z m-1439 -61 c3 -8 2 -12 -4 -9 -6 3 -10 10 -10 16
0 14 7 11 14 -7z m1303 -16 c-3 -7 -5 -2 -5 12 0 14 2 19 5 13 2 -7 2 -19 0
-25z m-1227 -84 c0 -8 -4 -12 -10 -9 -5 3 -10 10 -10 16 0 5 5 9 10 9 6 0 10
-7 10 -16z m1281 -137 c-10 -9 -11 -8 -5 6 3 10 9 15 12 12 3 -3 0 -11 -7 -18z
m5 -44 c-1 -14 -7 -28 -14 -31 -11 -3 -12 0 -3 17 7 11 9 21 6 21 -4 0 -3 5 0
10 10 16 12 12 11 -17z m-86 -253 c0 -5 -5 -10 -11 -10 -5 0 -7 5 -4 10 3 6 8
10 11 10 2 0 4 -4 4 -10z"/>
<path d="M16530 14080 c-36 -5 -104 -21 -150 -35 -47 -14 -116 -34 -153 -45
-132 -36 -224 -97 -253 -166 -8 -18 -14 -36 -14 -39 0 -12 32 -3 101 26 109
47 173 64 218 60 11 -1 10 -6 -3 -26 -9 -13 -16 -31 -16 -39 0 -44 113 -44
199 -1 30 15 62 28 70 30 9 2 29 8 46 15 61 23 162 39 237 36 75 -4 80 -5 161
-59 91 -61 161 -130 182 -181 36 -85 -13 -248 -125 -420 -94 -144 -159 -215
-275 -301 -439 -324 -874 -625 -903 -625 -12 0 21 100 44 136 10 15 19 33 20
41 2 8 14 39 28 69 14 30 26 56 26 58 0 2 18 44 41 93 50 107 44 95 174 383
58 129 108 250 111 270 3 19 12 48 20 64 10 22 11 32 3 42 -29 35 -60 3 -119
-123 -22 -46 -42 -83 -45 -83 -3 0 -2 8 3 18 45 85 53 112 39 139 l-14 26 -30
-41 c-17 -23 -36 -54 -42 -70 -15 -36 -48 -33 -57 5 -11 42 -16 34 -152 -242
-106 -212 -301 -632 -424 -910 -22 -49 -48 -108 -58 -131 -110 -243 -200 -468
-195 -483 3 -11 -9 -56 -29 -105 -38 -96 -36 -104 31 -113 37 -5 38 -4 51 39
11 37 52 147 57 156 1 1 10 -1 19 -4 12 -5 16 -13 11 -28 -3 -11 -7 -25 -9
-31 -1 -5 -14 -35 -28 -65 -38 -82 -159 -362 -165 -383 -4 -13 -1 -16 11 -11
18 7 49 -13 40 -27 -7 -12 34 -6 45 7 5 5 21 38 36 74 14 36 32 79 40 95 7 17
21 55 30 85 24 77 26 81 19 35 -5 -39 -5 -39 11 -17 25 34 76 165 71 179 -3 7
-2 13 3 13 5 0 14 15 22 33 7 17 28 65 46 105 18 39 33 76 33 80 0 5 18 44 40
88 22 43 40 86 40 94 0 8 12 40 26 71 l27 57 81 -101 c45 -56 129 -163 186
-237 58 -74 110 -142 117 -150 39 -48 221 -287 374 -490 97 -129 207 -269 243
-310 36 -41 103 -120 148 -175 174 -211 311 -372 474 -555 18 -19 44 -48 58
-65 l27 -30 26 31 26 32 68 -88 c38 -49 73 -91 79 -95 13 -8 13 16 0 50 -13
35 -139 221 -197 293 -85 104 -125 180 -88 166 11 -5 13 -2 8 12 -11 30 -136
216 -277 411 -195 272 -205 286 -224 308 -10 11 -28 36 -42 55 -23 33 -99 129
-110 140 -3 3 -35 41 -70 85 -35 44 -67 82 -70 85 -3 3 -21 25 -40 50 -19 25
-39 50 -45 56 -13 15 -28 34 -95 119 -70 89 -70 89 -122 155 -88 111 -269 352
-266 355 2 1 41 21 87 44 46 23 96 50 110 60 14 10 46 29 71 41 25 12 48 28
52 34 4 6 11 11 15 11 18 1 331 200 353 225 3 3 32 23 65 45 52 34 139 99 155
115 3 3 34 30 70 60 36 30 67 57 70 60 3 3 39 37 80 75 110 103 270 287 300
345 7 14 16 27 19 30 20 15 84 168 97 231 31 146 -5 306 -86 387 -92 92 -210
168 -275 177 -11 2 -47 11 -80 20 -70 20 -434 30 -545 15z m505 -95 c42 -16
27 -15 -67 5 -32 7 -58 16 -58 20 0 10 75 -5 125 -25z m-712 -2 c-7 -2 -19 -2
-25 0 -7 3 -2 5 12 5 14 0 19 -2 13 -5z m-53 -7 c0 -6 -103 -36 -108 -32 -4 5
77 34 96 35 6 1 12 -1 12 -3z m-120 -40 c0 -2 -7 -7 -16 -10 -8 -3 -12 -2 -9
4 6 10 25 14 25 6z m1263 -106 c45 -53 65 -119 62 -200 -4 -88 -11 -121 -44
-206 -60 -155 -232 -381 -404 -533 -50 -45 -28 -14 43 59 205 211 238 258 305
425 38 96 52 168 50 257 -3 92 -26 167 -72 232 l-35 49 31 -22 c16 -12 45 -40
64 -61z m-296 4 c90 -52 128 -141 113 -261 -1 -10 -7 6 -14 34 -18 72 -73 151
-148 213 -35 29 -67 56 -73 62 -16 15 76 -21 122 -48z m175 -69 c11 -21 8 -18
-32 30 -24 29 -24 29 -2 10 13 -11 28 -29 34 -40z m8 -135 c0 -13 -1 -13 -10
0 -5 8 -10 22 -10 30 0 13 1 13 10 0 5 -8 10 -22 10 -30z m-948 -2318 c91
-102 341 -424 432 -557 l49 -70 -45 45 c-24 25 -70 81 -101 125 -31 44 -84
116 -118 160 -94 124 -223 289 -229 295 -3 3 -22 28 -44 55 -31 41 -32 44 -6
15 18 -19 46 -50 62 -68z m466 -511 c20 -24 44 -54 52 -65 8 -12 20 -27 28
-35 20 -20 267 -341 337 -436 32 -44 62 -85 67 -92 7 -8 3 -10 -11 -6 -12 3
-21 10 -21 15 0 5 -20 30 -44 56 -24 26 -104 129 -177 228 -74 100 -163 221
-199 270 -36 48 -75 104 -88 124 -26 39 -21 33 56 -59z m402 -416 c7 -9 8 -15
2 -15 -5 0 -12 7 -16 15 -3 8 -4 15 -2 15 2 0 9 -7 16 -15z m74 -90 c3 -8 1
-15 -3 -15 -5 0 -11 7 -15 15 -3 8 -1 15 3 15 5 0 11 -7 15 -15z"/>
<path d="M20357 13784 c-4 -4 -35 -9 -69 -11 -35 -2 -94 -8 -133 -14 -38 -5
-86 -12 -105 -15 -19 -2 -55 -9 -80 -14 -25 -6 -70 -12 -100 -15 -60 -5 -99
-12 -145 -24 -16 -4 -41 -7 -55 -6 -14 2 -29 0 -34 -3 -5 -3 -23 -6 -39 -8
-16 -1 -32 -6 -36 -10 -3 -5 -40 -10 -81 -11 -89 -2 -214 -28 -230 -48 -7 -8
-17 -12 -24 -8 -19 13 -59 12 -111 -2 -27 -7 -72 -16 -99 -19 -29 -4 -54 -13
-62 -24 -10 -12 -13 -13 -14 -3 0 10 -11 12 -47 8 -64 -8 -116 -18 -128 -27
-5 -3 -41 -7 -79 -9 -38 -1 -79 -7 -90 -13 -12 -6 -40 -12 -64 -14 -71 -4
-126 -15 -149 -30 -13 -8 -23 -10 -23 -5 0 13 -50 3 -79 -16 -20 -12 -25 -13
-32 -2 -7 12 -9 12 -9 1 0 -10 -8 -12 -30 -7 -34 7 -100 -11 -100 -28 0 -8 -3
-8 -11 0 -7 7 -23 8 -47 2 -20 -5 -55 -11 -77 -13 -52 -6 -92 -13 -195 -38
-47 -11 -96 -22 -110 -24 -14 -3 -33 -7 -42 -10 -37 -11 -64 -16 -85 -15 -26
1 -31 -26 -12 -60 8 -16 19 -20 60 -18 35 2 53 -2 59 -12 5 -7 6 -17 2 -20
-11 -10 -72 -28 -117 -34 -65 -10 -126 -23 -131 -28 -2 -1 2 -21 8 -44 l10
-42 82 0 c66 0 152 12 316 44 8 2 64 13 123 25 60 12 110 20 112 18 2 -1 -54
-118 -123 -258 -70 -140 -145 -294 -167 -342 l-40 -87 -55 -11 c-30 -7 -73
-16 -95 -21 -55 -12 -182 -37 -229 -45 -21 -3 -48 -8 -60 -10 -11 -3 -37 -8
-56 -11 -19 -3 -46 -10 -60 -15 -22 -8 -23 -11 -9 -19 9 -5 27 -10 40 -12 40
-6 31 -23 -21 -37 -70 -19 -75 -28 -45 -86 28 -55 28 -54 18 -53 -20 3 -23 -3
-13 -21 14 -25 81 -60 117 -61 16 0 44 -1 63 -1 34 -1 87 5 140 17 34 8 100
15 100 11 0 -7 -122 -299 -170 -405 -54 -121 -59 -165 -15 -117 31 33 31 33 1
-45 -57 -149 -62 -156 -110 -163 -54 -8 -79 -26 -70 -49 3 -9 10 -17 15 -17 4
0 6 -7 3 -15 -4 -8 2 -27 11 -41 27 -41 8 -69 -58 -88 -30 -9 -60 -16 -66 -16
-16 0 -13 -42 5 -68 9 -13 30 -24 54 -28 l39 -6 -19 -39 c-20 -39 -26 -69 -13
-69 4 0 17 10 30 22 l24 23 -25 -71 c-14 -39 -26 -76 -26 -82 0 -16 43 -27 48
-12 2 6 23 40 46 74 22 35 52 84 66 111 14 26 35 54 46 62 23 14 195 64 204
58 3 -2 41 5 85 16 44 11 141 31 215 44 176 31 211 37 300 57 55 12 66 15 85
17 6 1 4 5 -4 10 -11 7 -4 11 25 17 53 9 117 32 124 44 3 6 53 25 109 42 107
34 135 54 112 81 -9 12 -30 15 -94 12 -78 -4 -84 6 -11 18 71 12 129 29 135
39 8 13 -9 58 -27 74 -9 7 -66 -1 -201 -28 -214 -43 -223 -44 -223 -23 0 18 1
18 -85 -1 -38 -8 -82 -17 -96 -18 -14 -2 -48 -8 -75 -14 -27 -6 -85 -16 -129
-22 -44 -6 -91 -13 -105 -16 -14 -2 -45 -7 -69 -9 -24 -3 -47 -8 -52 -11 -14
-8 80 236 203 531 27 66 54 130 58 142 11 27 48 52 86 59 16 3 37 7 46 10 10
3 30 8 45 10 31 6 78 33 70 40 -3 3 -19 6 -36 6 -35 1 -35 8 1 13 12 1 37 5
53 8 17 3 50 9 75 13 25 4 47 8 50 9 3 1 25 5 50 9 25 4 90 19 145 33 55 14
119 30 143 36 54 13 118 67 109 90 -5 14 -16 16 -59 11 -29 -2 -59 -7 -66 -9
-7 -3 -11 -1 -8 3 3 5 30 14 61 21 64 15 92 36 74 57 -7 8 -20 12 -31 8 -11
-3 -44 -7 -75 -8 -48 -2 -53 -1 -37 11 10 7 21 13 26 13 4 0 8 7 8 15 0 11
-10 13 -50 9 -31 -3 -50 -2 -50 5 0 5 -10 8 -22 6 -38 -6 -159 -17 -223 -20
-62 -3 -107 -10 -162 -24 -30 -9 -31 -8 -23 12 17 44 70 157 172 367 57 118
110 230 117 247 18 43 65 71 126 75 28 1 56 6 63 11 7 6 15 7 18 4 3 -3 25 1
47 9 23 8 56 17 72 19 17 2 93 17 170 33 77 17 158 33 180 36 22 4 51 8 65 11
14 2 52 6 85 10 99 11 226 35 299 56 94 28 109 30 117 17 4 -6 14 -8 24 -5 9
4 14 10 12 14 -3 5 5 9 16 9 12 1 32 4 45 7 16 4 22 1 22 -11 1 -15 2 -15 15
2 8 10 19 15 25 11 7 -4 17 -1 22 6 7 10 11 11 14 2 4 -9 13 -9 31 -2 14 5 28
7 31 4 3 -3 14 2 24 12 11 9 18 11 18 5 0 -7 7 -12 15 -12 8 0 15 5 15 11 0 5
8 9 18 8 44 -4 82 2 96 17 13 13 17 13 21 1 8 -18 121 -4 147 20 11 9 18 11
18 5 0 -13 48 -11 70 3 14 9 54 13 175 19 83 4 154 15 160 26 7 11 -31 23 -68
22 -24 -1 -27 2 -21 20 5 17 3 19 -18 13 -32 -10 -35 -15 -18 -25 8 -5 12 -12
8 -15 -4 -4 -21 7 -38 24 -26 25 -36 28 -51 20 -11 -5 -23 -8 -27 -5 -4 3 -14
1 -22 -4 -8 -5 -21 -5 -31 0 -10 6 -30 5 -50 0 -29 -9 -36 -7 -61 17 -15 15
-28 29 -28 32 0 3 21 7 48 9 195 11 200 13 185 59 -7 21 -17 29 -39 31 -16 2
-33 0 -37 -4z m-2194 -2551 c-7 -2 -19 -2 -25 0 -7 3 -2 5 12 5 14 0 19 -2 13
-5z m-226 -39 c-3 -3 -12 -4 -19 -1 -8 3 -5 6 6 6 11 1 17 -2 13 -5z"/>
<path d="M13290 13437 c-22 -9 -23 -11 -6 -14 10 -3 23 0 29 6 16 16 5 20 -23
8z"/>
<path d="M13185 13413 c-57 -17 -89 -40 -40 -29 73 17 105 27 110 36 8 13 -10
12 -70 -7z"/>
<path d="M10670 10086 c5 -14 7 -34 5 -45 -2 -12 0 -21 6 -21 5 0 9 6 10 13 0
6 2 21 4 32 4 20 -11 45 -26 45 -5 0 -4 -11 1 -24z"/>
<path d="M10670 9975 c0 -8 4 -15 10 -15 5 0 7 7 4 15 -4 8 -8 15 -10 15 -2 0
-4 -7 -4 -15z"/>
<path d="M10649 9938 c-2 -22 2 -43 12 -52 5 -6 9 4 9 27 0 33 -18 55 -21 25z"/>
<path d="M10655 9839 c-9 -14 -2 -20 14 -10 8 6 9 11 3 15 -6 3 -14 1 -17 -5z"/>
<path d="M10434 9559 c-3 -6 -1 -16 5 -22 8 -8 11 -5 11 11 0 24 -5 28 -16 11z"/>
<path d="M10552 9394 c4 -3 2 -19 -3 -36 -10 -35 0 -62 12 -32 12 30 10 74 -3
74 -6 0 -9 -3 -6 -6z"/>
<path d="M10486 9295 c4 -8 10 -12 15 -9 14 8 10 24 -6 24 -9 0 -12 -6 -9 -15z"/>
</g>
</svg>
